<svg width="25" height="24" viewBox="0 0 25 24" fill="none" xmlns="http://www.w3.org/2000/svg">
<path d="M7.75999 2H17.23C17.88 2 18.46 2.02182 18.98 2.09808C21.75 2.43582 22.5 3.85211 22.5 7.73062V14.6161C22.5 18.4946 21.75 19.9109 18.98 20.2486C18.46 20.3249 17.89 20.3467 17.23 20.3467H7.75999C7.10999 20.3467 6.52999 20.3249 6.00999 20.2486C3.23999 19.9109 2.49001 18.4946 2.49001 14.6161V7.73062C2.49001 3.85211 3.23999 2.43582 6.00999 2.09808C6.52999 2.02182 7.10999 2 7.75999 2Z" stroke="#5F6370" stroke-width="1.5" stroke-linecap="round" stroke-linejoin="round"/>
<path d="M14.0798 5.02829H17.7598" stroke="#5F6370" stroke-width="1.5" stroke-linecap="round" stroke-linejoin="round"/>
<path d="M2.99586 7.66016L3.0316 7.66016L12.4258 7.66016L21.8201 7.66015" stroke="#5F6370" stroke-width="1.5" stroke-linecap="round" stroke-linejoin="round"/>
<path d="M6.49805 11.1738H18.6289" stroke="#5F6370" stroke-width="1.5" stroke-linecap="round" stroke-linejoin="round"/>
<path d="M6.49805 13.6748H18.6289" stroke="#5F6370" stroke-width="1.5" stroke-linecap="round" stroke-linejoin="round"/>
<path d="M6.49805 16.2321H18.6289" stroke="#5F6370" stroke-width="1.5" stroke-linecap="round" stroke-linejoin="round"/>
<path d="M7.69373 5.00778H7.70271" stroke="#5F6370" stroke-width="1.5" stroke-linecap="round" stroke-linejoin="round"/>
<path d="M10.9945 5.00778H11.0035" stroke="#5F6370" stroke-width="1.5" stroke-linecap="round" stroke-linejoin="round"/>
</svg>
