<svg width="31" height="31" viewBox="0 0 31 31" fill="none" xmlns="http://www.w3.org/2000/svg">
<path d="M21.75 17.25V21C21.75 26 19.75 28 14.75 28H10C5 28 3 26 3 21V16.25C3 11.25 5 9.25 10 9.25H13.75" stroke="#D92D27" stroke-width="1.5" stroke-linecap="round" stroke-linejoin="round"/>
<path d="M21.75 17.25H17.75C14.75 17.25 13.75 16.25 13.75 13.25V9.25L21.75 17.25Z" stroke="#D92D27" stroke-width="1.5" stroke-linecap="round" stroke-linejoin="round"/>
<path d="M15 3H20" stroke="#D92D27" stroke-width="1.5" stroke-linecap="round" stroke-linejoin="round"/>
<path d="M9.25 6.75C9.25 4.675 10.925 3 13 3H16.275" stroke="#D92D27" stroke-width="1.5" stroke-linecap="round" stroke-linejoin="round"/>
<path d="M28 10.5V18.2375C28 20.175 26.425 21.75 24.4875 21.75" stroke="#D92D27" stroke-width="1.5" stroke-linecap="round" stroke-linejoin="round"/>
<path d="M28 10.5H24.25C21.4375 10.5 20.5 9.5625 20.5 6.75V3L28 10.5Z" stroke="#D92D27" stroke-width="1.5" stroke-linecap="round" stroke-linejoin="round"/>
</svg>
