<svg width="16" height="16" viewBox="0 0 16 16" fill="none" xmlns="http://www.w3.org/2000/svg">
<path fill-rule="evenodd" clip-rule="evenodd" d="M14.4 8.00001C14.4 9.69739 13.7257 11.3253 12.5255 12.5255C11.3253 13.7257 9.69739 14.4 8.00001 14.4C6.30262 14.4 4.67476 13.7257 3.47452 12.5255C2.27429 11.3253 1.60001 9.69739 1.60001 8.00001C1.60001 6.30262 2.27429 4.67476 3.47452 3.47452C4.67476 2.27429 6.30262 1.60001 8.00001 1.60001C9.69739 1.60001 11.3253 2.27429 12.5255 3.47452C13.7257 4.67476 14.4 6.30262 14.4 8.00001ZM8.80001 11.2C8.80001 11.4122 8.71572 11.6157 8.56569 11.7657C8.41566 11.9157 8.21218 12 8.00001 12C7.78783 12 7.58435 11.9157 7.43432 11.7657C7.28429 11.6157 7.20001 11.4122 7.20001 11.2C7.20001 10.9878 7.28429 10.7843 7.43432 10.6343C7.58435 10.4843 7.78783 10.4 8.00001 10.4C8.21218 10.4 8.41566 10.4843 8.56569 10.6343C8.71572 10.7843 8.80001 10.9878 8.80001 11.2ZM8.00001 4.00001C7.78783 4.00001 7.58435 4.08429 7.43432 4.23432C7.28429 4.38435 7.20001 4.58783 7.20001 4.80001V8.00001C7.20001 8.21218 7.28429 8.41566 7.43432 8.56569C7.58435 8.71572 7.78783 8.80001 8.00001 8.80001C8.21218 8.80001 8.41566 8.71572 8.56569 8.56569C8.71572 8.41566 8.80001 8.21218 8.80001 8.00001V4.80001C8.80001 4.58783 8.71572 4.38435 8.56569 4.23432C8.41566 4.08429 8.21218 4.00001 8.00001 4.00001Z" fill="#E78A57"/>
</svg>
