<svg width="28" height="28" viewBox="0 0 28 28" fill="none" xmlns="http://www.w3.org/2000/svg">
<g clip-path="url(#clip0_1_3554)">
<path d="M16.5908 0V5.97625C16.5908 6.3525 16.8621 6.64125 17.2208 6.64125H22.8996L16.5908 0Z" fill="#DA291C"/>
<path d="M22.2689 16.1172C19.1101 16.1172 16.5464 18.7859 16.5464 22.0584C16.5464 25.3309 19.1189 27.9997 22.2689 27.9997C25.4189 27.9997 27.9914 25.3309 27.9914 22.0584C27.9914 18.7859 25.4189 16.1172 22.2689 16.1172Z" fill="#666668"/>
<path d="M23.1518 24.6969V21.7569C23.1518 21.2785 22.764 20.8906 22.2855 20.8906H22.268C21.7896 20.8906 21.4018 21.2785 21.4018 21.7569V24.6969C21.4018 25.1753 21.7896 25.5631 22.268 25.5631H22.2855C22.764 25.5631 23.1518 25.1753 23.1518 24.6969Z" fill="white"/>
<path d="M22.2681 20.365C22.7513 20.365 23.1431 19.9615 23.1431 19.4638C23.1431 18.966 22.7513 18.5625 22.2681 18.5625C21.7848 18.5625 21.3931 18.966 21.3931 19.4638C21.3931 19.9615 21.7848 20.365 22.2681 20.365Z" fill="white"/>
<path d="M16.8438 8.39125C15.7325 8.39125 14.8225 7.44625 14.8225 6.29125V0H2.02125C0.91 0 0 0.945 0 2.1V25.865C0 27.0113 0.91 27.965 2.02125 27.965H18.0863C17.2113 27.3088 16.4675 26.4425 15.9688 25.4275C14.7875 23.1263 14.91 20.23 16.3012 18.0513C17.5525 16.0037 19.7838 14.7438 22.0938 14.7C22.365 14.7 22.6362 14.7 22.8988 14.7263V8.4H16.835L16.8438 8.39125ZM3.29 7.83125C3.29 7.35 3.68375 6.965 4.15625 6.965H9.6425C10.1238 6.965 10.5087 7.35875 10.5087 7.83125V7.84875C10.5087 8.33 10.115 8.715 9.6425 8.715H4.15625C3.675 8.715 3.29 8.32125 3.29 7.84875V7.83125ZM11.3575 21.6388C11.3575 22.12 10.9637 22.505 10.4913 22.505H4.15625C3.675 22.505 3.29 22.1113 3.29 21.6388V21.6213C3.29 21.14 3.68375 20.755 4.15625 20.755H10.4913C10.9725 20.755 11.3575 21.1488 11.3575 21.6213V21.6388ZM13.055 17.0363C13.055 17.5175 12.6613 17.9025 12.1888 17.9025H4.15625C3.675 17.9025 3.29 17.5088 3.29 17.0363V17.0188C3.29 16.5375 3.68375 16.1525 4.15625 16.1525H12.1888C12.67 16.1525 13.055 16.5463 13.055 17.0188V17.0363ZM15.6012 12.4425C15.6012 12.9238 15.2075 13.3088 14.735 13.3088H4.15625C3.675 13.3088 3.29 12.915 3.29 12.4425V12.425C3.29 11.9438 3.68375 11.5588 4.15625 11.5588H14.735C15.2163 11.5588 15.6012 11.9525 15.6012 12.425V12.4425Z" fill="#DA291C"/>
</g>
<defs>
<clipPath id="clip0_1_3554">
<rect width="28" height="28" fill="white"/>
</clipPath>
</defs>
</svg>
