<svg width="25" height="24" viewBox="0 0 25 24" fill="none" xmlns="http://www.w3.org/2000/svg">
<path d="M22.5 15C22.5 18.87 19.37 22 15.5 22L16.55 20.25" stroke="#5F6370" stroke-width="1.5" stroke-linecap="round" stroke-linejoin="round"/>
<path d="M2.5 9C2.5 5.13 5.63 2 9.5 2L8.45 3.75" stroke="#5F6370" stroke-width="1.5" stroke-linecap="round" stroke-linejoin="round"/>
<path d="M14.2 4.45001L18.18 6.75L22.12 4.46002" stroke="#5F6370" stroke-width="1.5" stroke-linecap="round" stroke-linejoin="round"/>
<path d="M18.18 10.82V6.73999" stroke="#5F6370" stroke-width="1.5" stroke-linecap="round" stroke-linejoin="round"/>
<path d="M17.24 2.21L14.84 3.53996C14.3 3.83996 13.85 4.59995 13.85 5.21995V7.75999C13.85 8.37999 14.29 9.13998 14.84 9.43998L17.24 10.77C17.75 11.06 18.59 11.06 19.11 10.77L21.51 9.43998C22.05 9.13998 22.5 8.37999 22.5 7.75999V5.21995C22.5 4.59995 22.06 3.83996 21.51 3.53996L19.11 2.21C18.6 1.93 17.76 1.93 17.24 2.21Z" stroke="#5F6370" stroke-width="1.5" stroke-linecap="round" stroke-linejoin="round"/>
<path d="M2.85001 15.45L6.82001 17.75L10.77 15.46" stroke="#5F6370" stroke-width="1.5" stroke-linecap="round" stroke-linejoin="round"/>
<path d="M6.82001 21.82V17.74" stroke="#5F6370" stroke-width="1.5" stroke-linecap="round" stroke-linejoin="round"/>
<path d="M5.89 13.21L3.49001 14.54C2.95001 14.84 2.5 15.5999 2.5 16.2199V18.76C2.5 19.38 2.94001 20.14 3.49001 20.44L5.89 21.77C6.4 22.06 7.23999 22.06 7.75999 21.77L10.16 20.44C10.7 20.14 11.15 19.38 11.15 18.76V16.2199C11.15 15.5999 10.71 14.84 10.16 14.54L7.75999 13.21C7.23999 12.93 6.4 12.93 5.89 13.21Z" stroke="#5F6370" stroke-width="1.5" stroke-linecap="round" stroke-linejoin="round"/>
</svg>
