<svg width="25" height="25" viewBox="0 0 25 25" fill="none" xmlns="http://www.w3.org/2000/svg">
<path d="M15.6733 17.5H20.6733L19.2683 16.095C19.0797 15.9063 18.93 15.6822 18.8279 15.4357C18.7258 15.1891 18.6733 14.9249 18.6733 14.658V11.5C18.6735 10.2589 18.2889 9.04834 17.5726 8.03489C16.8562 7.02144 15.8433 6.25496 14.6733 5.841V5.5C14.6733 4.96957 14.4626 4.46086 14.0876 4.08579C13.7125 3.71071 13.2038 3.5 12.6733 3.5C12.1429 3.5 11.6342 3.71071 11.2591 4.08579C10.8841 4.46086 10.6733 4.96957 10.6733 5.5V5.841C8.34334 6.665 6.67334 8.888 6.67334 11.5V14.659C6.67334 15.197 6.45934 15.714 6.07834 16.095L4.67334 17.5H9.67334M15.6733 17.5H9.67334M15.6733 17.5V18.5C15.6733 19.2956 15.3573 20.0587 14.7947 20.6213C14.2321 21.1839 13.469 21.5 12.6733 21.5C11.8777 21.5 11.1146 21.1839 10.552 20.6213C9.98941 20.0587 9.67334 19.2956 9.67334 18.5V17.5" stroke="black" stroke-width="2" stroke-linecap="round" stroke-linejoin="round"/>
</svg>
