<svg width="25" height="25" viewBox="0 0 25 25" fill="none" xmlns="http://www.w3.org/2000/svg">
<path d="M9.67334 8.5H15.6733M10.6733 8.5C11.0673 8.5 11.4574 8.5776 11.8214 8.72836C12.1854 8.87913 12.5161 9.1001 12.7947 9.37868C13.0732 9.65726 13.2942 9.98797 13.445 10.3519C13.5957 10.7159 13.6733 11.106 13.6733 11.5C13.6733 11.894 13.5957 12.2841 13.445 12.6481C13.2942 13.012 13.0732 13.3427 12.7947 13.6213C12.5161 13.8999 12.1854 14.1209 11.8214 14.2716C11.4574 14.4224 11.0673 14.5 10.6733 14.5H9.67334L12.6733 17.5M9.67334 11.5H15.6733M21.6733 12.5C21.6733 13.6819 21.4405 14.8522 20.9883 15.9442C20.536 17.0361 19.873 18.0282 19.0373 18.864C18.2016 19.6997 17.2094 20.3626 16.1175 20.8149C15.0256 21.2672 13.8552 21.5 12.6733 21.5C11.4914 21.5 10.3211 21.2672 9.22919 20.8149C8.13726 20.3626 7.14511 19.6997 6.30938 18.864C5.47365 18.0282 4.81072 17.0361 4.35842 15.9442C3.90613 14.8522 3.67334 13.6819 3.67334 12.5C3.67334 10.1131 4.62155 7.82387 6.30938 6.13604C7.99721 4.44821 10.2864 3.5 12.6733 3.5C15.0603 3.5 17.3495 4.44821 19.0373 6.13604C20.7251 7.82387 21.6733 10.1131 21.6733 12.5Z" stroke="black" stroke-width="2" stroke-linecap="round" stroke-linejoin="round"/>
</svg>
