<svg width="25" height="25" viewBox="0 0 25 25" fill="none" xmlns="http://www.w3.org/2000/svg">
<path d="M21.6733 12.5C21.6733 14.8869 20.7251 17.1761 19.0373 18.864C17.3495 20.5518 15.0603 21.5 12.6733 21.5M21.6733 12.5C21.6733 10.1131 20.7251 7.82387 19.0373 6.13604C17.3495 4.44821 15.0603 3.5 12.6733 3.5M21.6733 12.5H3.67334M12.6733 21.5C10.2864 21.5 7.99721 20.5518 6.30938 18.864C4.62155 17.1761 3.67334 14.8869 3.67334 12.5M12.6733 21.5C14.3303 21.5 15.6733 17.47 15.6733 12.5C15.6733 7.53 14.3303 3.5 12.6733 3.5M12.6733 21.5C11.0163 21.5 9.67334 17.47 9.67334 12.5C9.67334 7.53 11.0163 3.5 12.6733 3.5M12.6733 3.5C10.2864 3.5 7.99721 4.44821 6.30938 6.13604C4.62155 7.82387 3.67334 10.1131 3.67334 12.5" stroke="black" stroke-width="2" stroke-linecap="round" stroke-linejoin="round"/>
</svg>
