<svg width="38" height="35" viewBox="0 0 38 35" fill="none" xmlns="http://www.w3.org/2000/svg">
<g clip-path="url(#clip0_1_9277)">
<path d="M25.4748 11.9961L25.3447 11.9605C18.1461 9.99793 10.5339 9.99684 3.32862 11.9605L3.19852 11.9961C1.71189 12.4019 0.67334 13.7607 0.67334 15.3018V25.6983C0.67334 27.2394 1.71189 28.5982 3.19852 29.0041L3.32862 29.0396C6.93013 30.0215 10.6328 30.5118 14.3378 30.5118C18.0405 30.5118 21.7443 30.0215 25.3436 29.0396L25.4748 29.0041C25.7784 28.9218 25.9574 28.6093 25.8751 28.3058C25.7929 28.0033 25.486 27.8265 25.1768 27.9055L25.0445 27.941C18.0416 29.8513 10.6362 29.8513 3.62886 27.941L3.49877 27.9055C2.50583 27.6341 1.81199 26.7268 1.81199 25.6983V15.3018C1.81199 14.2733 2.50583 13.3659 3.49877 13.0947L3.62886 13.0591C10.634 11.1488 18.0405 11.1488 25.0457 13.0591L25.1757 13.0947C26.1687 13.3649 26.8614 14.2733 26.8614 15.3018V25.6983C26.8614 26.013 27.1161 26.2676 27.4307 26.2676C27.7454 26.2676 28 26.013 28 25.6983V15.3018C28 13.7607 26.9615 12.4019 25.4748 11.9961Z" fill="#D92D27"/>
<path d="M12.5441 21.4754H15.4452C15.8989 23.5828 17.7672 25.1674 19.9966 25.1674C20.2333 25.1674 20.4653 25.1497 20.6924 25.1152V23.2065C20.465 23.2646 20.2312 23.294 19.9966 23.2939C18.4535 23.2939 17.2025 22.0359 17.2025 20.4844C17.2025 18.9322 18.4535 17.6742 19.9966 17.6742C21.5404 17.6742 22.7915 18.9322 22.7915 20.4844C22.7915 20.7257 22.7611 20.9595 22.7039 21.1832H24.6022C24.637 20.9519 24.6544 20.7183 24.6542 20.4844C24.6542 17.9019 22.5651 15.8014 19.9966 15.8014C18.8002 15.8014 17.7078 16.2578 16.8821 17.0062V15.8011H10.6812V24.5269L8.43509 21.6835C9.39107 21.1679 10.0413 20.1538 10.0413 18.9867V18.9243C10.0413 17.2004 8.65178 15.8028 6.93736 15.8023L3.31287 15.8012V25.1671H5.17588V22.0451H6.43694L8.66884 25.1673H11.1868V25.1672H12.544V21.4754H12.5441ZM12.5441 17.6744H16.2735C15.8247 18.2741 15.5157 18.9851 15.3955 19.7583H12.5441V17.6744ZM8.16935 19.0793C8.16935 19.7689 7.6134 20.3281 6.92732 20.3281H5.17591V17.6744H6.92732C7.61337 17.6744 8.16935 18.2335 8.16935 18.9232V19.0793Z" fill="#D92D27"/>
<path d="M23.3861 26.6079V23.8966H26.0825L24.3667 22.1713H22.3633L20.341 20.1377C20.1494 19.9452 19.8392 19.9452 19.6477 20.1377C19.4561 20.3303 19.4561 20.6422 19.6477 20.8348L21.6701 22.8685V24.8825L23.3861 26.6079Z" fill="#D92D27"/>
</g>
<rect x="18.063" y="0.551197" width="19.8739" height="19.8739" rx="9.93697" fill="#D92D27"/>
<path d="M27.8286 14.9882V9.05083H25.9033V7.93292C26.9467 7.89565 27.8783 7.51059 28.0522 6.41753H29.5303V14.9882H27.8286Z" fill="white"/>
<defs>
<clipPath id="clip0_1_9277">
<rect width="27.3267" height="27.4764" fill="white" transform="translate(0.67334 6.76181)"/>
</clipPath>
</defs>
</svg>
