<svg width="30" height="31" viewBox="0 0 30 31" fill="none" xmlns="http://www.w3.org/2000/svg">
<path d="M6.40125 22.755C9.02427 21.2724 11.987 20.4954 15 20.5C18.125 20.5 21.0587 21.3188 23.5987 22.755M18.75 13C18.75 13.9946 18.3549 14.9484 17.6517 15.6517C16.9484 16.3549 15.9946 16.75 15 16.75C14.0054 16.75 13.0516 16.3549 12.3483 15.6517C11.6451 14.9484 11.25 13.9946 11.25 13C11.25 12.0054 11.6451 11.0516 12.3483 10.3483C13.0516 9.64509 14.0054 9.25 15 9.25C15.9946 9.25 16.9484 9.64509 17.6517 10.3483C18.3549 11.0516 18.75 12.0054 18.75 13ZM26.25 15.5C26.25 16.9774 25.959 18.4403 25.3936 19.8052C24.8283 21.1701 23.9996 22.4103 22.955 23.455C21.9103 24.4996 20.6701 25.3283 19.3052 25.8936C17.9403 26.459 16.4774 26.75 15 26.75C13.5226 26.75 12.0597 26.459 10.6948 25.8936C9.3299 25.3283 8.08971 24.4996 7.04505 23.455C6.00039 22.4103 5.17172 21.1701 4.60636 19.8052C4.04099 18.4403 3.75 16.9774 3.75 15.5C3.75 12.5163 4.93526 9.65483 7.04505 7.54505C9.15483 5.43526 12.0163 4.25 15 4.25C17.9837 4.25 20.8452 5.43526 22.955 7.54505C25.0647 9.65483 26.25 12.5163 26.25 15.5Z" stroke="black" stroke-width="2" stroke-linecap="round" stroke-linejoin="round"/>
</svg>
